<?xml version="1.0" encoding="utf-8"?>
<svg version="1.0" xmlns="http://www.w3.org/2000/svg" viewBox="0 0 110 110" preserveAspectRatio="xMidYMid meet">
  <g transform="matrix(0.1, 0, 0, -0.1, -8.65, 119.55)" fill="#000000" stroke="none">
    <path style="fill: rgb(255, 255, 255); stroke: none;" d="M 220.257 931.233 C 220.257 946.452 460.44 1036.15 462.717 1036.719 C 464.753 1037.228 761.855 1043.017 783.897 1043.017 C 790.72 1043.017 1044.025 964.559 1060.995 939.105 C 1061.286 938.668 1071.769 362.291 1070.442 361.295 C 1069.503 360.591 869.441 263.681 857.895 263.681 C 840.052 263.681 453.737 251.826 450.121 252.66 C 446.887 253.407 232.852 334.53 229.703 334.53" id="object-0"/>
    <path d="M 446 1065 C 333 1046 254 1013 203 965 C 167 930 160 917 160 884 C 160 862 167 834 176 822 C 190 802 190 798 176 778 C 156 749 156 691 176 662 C 190 642 190 638 176 618 C 156 589 156 531 175 502 C 189 483 189 477 174 449 C 127 357 204 278 388 228 C 500 198 780 198 892 228 C 1076 278 1153 357 1106 449 C 1091 477 1091 483 1105 502 C 1124 531 1124 589 1104 618 C 1090 638 1090 642 1104 662 C 1124 691 1124 749 1104 778 C 1090 798 1090 802 1104 822 C 1113 834 1120 862 1120 884 C 1120 917 1113 930 1077 965 C 1053 988 1009 1015 976 1028 C 848 1077 615 1093 446 1065 Z M 875 976 C 948 956 1019 921 1034 897 C 1058 859 985.818 820.277 865 784 C 775.723 757.194 769.591 759 765.591 721 C 762.591 693 770.577 687.606 789.394 688.606 C 804.394 688.606 856 702 905 716 C 1025 749 1031.606 763.168 1035.606 737.168 C 1037.734 722.626 1042.898 702.144 1026.31 690.219 C 983.742 659.617 891.382 631.284 815.165 614.082 C 794.46 609.409 782.076 609.116 772.497 602.058 C 762.455 594.658 758.598 585.183 760 569 C 760 533 762 530 788 531 C 803 531 856 542 905 556 C 1025 589 1036.394 597.183 1040.394 571.183 C 1042.434 557.243 1051.562 538.12 1028.977 523.278 C 991.867 498.89 884.672 472.293 810.835 456.247 C 788.878 452.103 776.84 454.158 765.836 443.775 C 758.238 436.606 760.183 423.463 760 409 C 760 373 762 370 788 371 C 803 371 856 382 905 396 C 1022 428 1042.764 437.874 1046.764 415.874 C 1048.821 405.429 1050.846 385.884 1043.034 376.209 C 1002.252 325.702 826.026 280 640 280 C 419 280 244.562 345.788 240.802 389.042 C 239.734 401.333 234.745 421.467 259.426 422.346 C 279.475 423.059 322.296 409.861 375 397 C 421.878 385.561 491.738 371.631 533 367 C 534.596 366.76 562.092 362.636 582.044 360.999 C 598.21 360.335 607.151 371.627 604.789 397.606 C 604.789 436.606 597.705 434.173 566 440 C 520.005 448.453 396 465 342 484 C 310.729 495.065 267.519 507.982 250.177 521.302 C 231.47 535.67 241.121 558.888 243.197 572.38 C 247.197 598.38 256 589 375 556 C 425 542 453.634 537.183 458.634 537.183 C 467.423 537.183 480 548 480 570 C 480 607 477.787 608.008 443 616 C 378.553 630.807 288.957 653.733 249.843 680.385 C 220.982 700.05 232.694 720.261 234.817 735.971 C 238.817 760.971 259 749 350 722 C 386 712 430 700 448 697 C 479 691 480 691 480 725 C 480 764 480.723 759.555 400.865 784.11 C 326.42 807 240 854 240 879 C 240 917 323 958 450 985 C 538 1004 793 998 875 976 Z"/>
    <path d="M 530 949 C 405 928 367 876 448 835 C 471 823 496 808 503 801 C 510 794 517 747 520 683 C 524 597 528 575 543 566 C 555 558 565 558 578 566 C 592 575 595 595 598 689 C 600 791 602 800 620 800 C 639 800 640 791 642 589 C 645 400 647 376 663 366 C 675 358 685 358 698 366 C 713 376 716 401 720 577 C 726 800 727 803 793 821 C 926 857 898 924 740 949 C 665 962 607 961 530 949 Z"/>
  </g>
</svg>
